<svg width="500" height="400" viewBox="0 0 500 400" fill="none" xmlns="http://www.w3.org/2000/svg">
  <!-- Background Elements -->
  <circle cx="250" cy="200" r="150" fill="#f5f7fa" opacity="0.5"/>
  <circle cx="250" cy="200" r="120" fill="#e1e4e8" opacity="0.3"/>
  
  <!-- Stylized Computer/Laptop -->
  <rect x="150" y="160" width="200" height="120" rx="8" fill="#0071e3"/>
  <rect x="155" y="165" width="190" height="110" rx="4" fill="#121212"/>
  
  <!-- Screen Content (macOS-like) -->
  <rect x="165" y="175" width="170" height="90" rx="2" fill="#f0f0f0"/>
  
  <!-- Dock -->
  <rect x="195" y="245" width="110" height="12" rx="6" fill="rgba(255,255,255,0.8)"/>
  
  <!-- Menu Bar -->
  <rect x="165" y="175" width="170" height="15" rx="2" fill="rgba(0,0,0,0.1)"/>
  
  <!-- Apple Logo -->
  <circle cx="175" cy="182" r="5" fill="#0071e3"/>
  
  <!-- Window -->
  <rect x="175" y="195" width="150" height="40" rx="4" fill="white" stroke="#e1e4e8" stroke-width="1"/>
  
  <!-- Code Lines -->
  <line x1="185" y1="205" x2="235" y2="205" stroke="#0071e3" stroke-width="2"/>
  <line x1="185" y1="215" x2="255" y2="215" stroke="#6c5ce7" stroke-width="2"/>
  <line x1="185" y1="225" x2="245" y2="225" stroke="#00c16e" stroke-width="2"/>
  
  <!-- Laptop Base -->
  <rect x="140" y="280" width="220" height="10" rx="2" fill="#0071e3"/>
  
  <!-- OpenCore Symbol -->
  <circle cx="320" cy="120" r="30" fill="#f5f7fa" stroke="#0071e3" stroke-width="2"/>
  <path d="M310 110L330 130M330 110L310 130" stroke="#0071e3" stroke-width="2"/>
  
  <!-- CPU Symbol -->
  <rect x="100" y="100" width="40" height="40" rx="4" fill="#f5f7fa" stroke="#6c5ce7" stroke-width="2"/>
  <rect x="110" y="110" width="20" height="20" rx="2" fill="#6c5ce7"/>
  
  <!-- GPU Symbol -->
  <rect x="360" y="240" width="50" height="30" rx="4" fill="#f5f7fa" stroke="#00c16e" stroke-width="2"/>
  <line x1="365" y1="250" x2="405" y2="250" stroke="#00c16e" stroke-width="2"/>
  <line x1="365" y1="260" x2="395" y2="260" stroke="#00c16e" stroke-width="2"/>
  
  <!-- Connecting Lines (Circuit-like) -->
  <path d="M140 120L120 120" stroke="#6c5ce7" stroke-width="1" stroke-dasharray="2 2"/>
  <path d="M120 120L120 200L150 200" stroke="#6c5ce7" stroke-width="1" stroke-dasharray="2 2"/>
  
  <path d="M320 150L320 200L350 200" stroke="#0071e3" stroke-width="1" stroke-dasharray="2 2"/>
  
  <path d="M360 240L320 240L320 200" stroke="#00c16e" stroke-width="1" stroke-dasharray="2 2"/>
  
  <!-- Decorative Elements -->
  <circle cx="100" cy="300" r="15" fill="#0071e3" opacity="0.2"/>
  <circle cx="400" cy="100" r="20" fill="#6c5ce7" opacity="0.2"/>
  <circle cx="400" cy="300" r="25" fill="#00c16e" opacity="0.2"/>
</svg>